<?xml version="1.0" standalone="no"?>
<!DOCTYPE svg PUBLIC "-//W3C//DTD SVG 20010904//EN"
 "http://www.w3.org/TR/2001/REC-SVG-20010904/DTD/svg10.dtd">
<svg version="1.0" xmlns="http://www.w3.org/2000/svg"
 width="1200.000000pt" height="628.000000pt" viewBox="0 0 1200.000000 628.000000"
 preserveAspectRatio="xMidYMid meet">

<g transform="translate(0.000000,628.000000) scale(0.100000,-0.100000)"
fill="#000000" stroke="none">
<path d="M6550 4284 c-357 -35 -687 -259 -845 -573 -52 -105 -95 -256 -95
-337 l0 -74 1076 0 1077 0 -6 58 c-26 227 -136 455 -301 617 -154 153 -322
244 -535 291 -67 14 -293 25 -371 18z m292 -205 c167 -34 303 -104 422 -218
118 -113 205 -267 240 -423 3 -14 9 -33 12 -42 6 -15 -70 -16 -836 -16 l-842
0 7 33 c66 329 327 595 650 662 76 16 278 18 347 4z"/>
<path d="M470 3200 l0 -1040 550 0 550 0 0 30 0 30 -515 0 -515 0 0 1010 0
1010 -35 0 -35 0 0 -1040z"/>
<path d="M1833 3483 c5 -808 4 -791 55 -936 68 -192 217 -341 400 -401 128
-41 186 -48 368 -44 188 6 265 21 376 77 232 118 346 312 378 646 8 81 10 332
8 765 l-3 645 -32 3 -32 3 -4 -733 c-5 -771 -5 -779 -52 -913 -63 -182 -209
-332 -380 -390 -128 -43 -307 -55 -455 -30 -107 18 -131 25 -205 63 -174 88
-291 246 -337 457 -7 32 -13 317 -17 795 l-6 745 -33 3 -33 3 4 -758z"/>
<path d="M3860 4235 c0 -7 93 -147 424 -639 l234 -349 -16 -26 c-9 -14 -88
-132 -176 -261 -87 -129 -200 -298 -252 -375 -51 -77 -134 -200 -184 -274 -50
-73 -93 -138 -96 -142 -3 -5 14 -9 38 -9 l43 0 129 193 c71 105 221 329 333
497 113 168 210 311 217 318 13 13 38 -23 604 -869 l93 -139 44 0 44 0 -133
198 c-119 176 -261 388 -513 760 -67 100 -81 127 -73 141 11 22 559 842 613
919 40 56 37 67 -20 60 -25 -3 -61 -53 -335 -463 -169 -253 -311 -461 -315
-462 -4 -1 -147 207 -316 463 l-309 464 -39 0 c-21 0 -39 -2 -39 -5z"/>
<path d="M8237 4233 c-4 -3 -7 -471 -7 -1040 l0 -1033 35 0 35 0 0 520 0 520
243 0 242 0 55 -92 c30 -50 62 -103 71 -119 8 -15 23 -39 32 -52 9 -14 25 -41
35 -59 11 -18 112 -186 225 -373 l205 -340 41 -3 c23 -2 41 -1 41 3 0 3 -19
36 -41 73 -23 37 -50 83 -61 102 -11 19 -24 40 -28 45 -14 18 -490 804 -490
809 0 2 33 7 73 11 257 25 440 158 503 364 18 60 18 235 0 303 -33 124 -115
226 -230 282 -95 47 -117 53 -250 71 -113 15 -716 22 -729 8z m688 -77 c232
-30 353 -99 426 -242 31 -61 34 -77 37 -167 8 -210 -71 -342 -252 -422 -30
-13 -66 -26 -78 -29 -13 -2 -43 -9 -68 -15 -27 -6 -176 -11 -367 -11 l-323 0
0 450 0 450 258 0 c162 0 297 -5 367 -14z"/>
<path d="M10598 4193 c-11 -27 -31 -72 -44 -101 -13 -29 -24 -55 -24 -57 0 -2
-13 -34 -30 -70 -16 -36 -30 -67 -30 -70 0 -2 -13 -32 -29 -67 -16 -35 -66
-148 -111 -253 -105 -241 -138 -318 -189 -433 -22 -50 -41 -94 -41 -97 0 -2
-11 -28 -24 -57 -72 -160 -106 -239 -106 -243 0 -3 -16 -39 -35 -81 -19 -41
-35 -77 -35 -80 0 -2 -16 -38 -35 -80 -19 -41 -35 -77 -35 -79 0 -2 -13 -32
-29 -67 -35 -77 -81 -185 -81 -193 0 -3 17 -5 38 -5 l37 0 69 162 c39 90 85
196 103 236 18 41 33 75 33 77 0 3 11 29 25 60 l26 55 597 0 598 0 17 -37 c19
-44 65 -155 108 -263 17 -41 39 -94 50 -116 10 -23 27 -66 39 -95 29 -77 32
-81 73 -77 l36 3 -35 85 c-20 47 -49 119 -66 160 -17 41 -38 93 -48 115 -10
22 -34 78 -53 125 -19 47 -76 184 -127 305 -138 330 -190 455 -212 510 -11 28
-28 68 -38 90 -10 22 -32 75 -49 117 -16 42 -39 96 -50 120 -11 24 -48 111
-81 193 -108 264 -103 255 -150 255 -39 0 -42 -2 -62 -47z m151 -228 c45 -110
88 -213 96 -230 7 -16 39 -93 70 -170 31 -77 63 -153 70 -170 24 -53 116 -276
157 -380 22 -55 48 -119 59 -142 10 -23 19 -44 19 -47 0 -4 -256 -6 -570 -6
-313 0 -570 2 -570 4 0 6 202 482 245 578 19 43 35 80 35 82 0 3 11 29 24 58
13 29 41 94 61 143 20 50 48 114 61 143 13 29 24 55 24 57 0 2 13 33 28 67 16
35 44 100 63 145 19 45 37 79 40 75 3 -4 43 -97 88 -207z"/>
<path d="M5610 3003 c0 -63 42 -208 87 -303 76 -157 232 -336 372 -426 224
-143 518 -203 785 -159 257 42 433 130 603 301 159 159 269 380 289 577 l7 67
-1072 0 -1071 0 0 -57z m1893 -55 c-3 -18 -21 -73 -40 -122 -91 -239 -298
-427 -550 -498 -114 -32 -354 -32 -466 0 -218 62 -400 203 -506 393 -36 64
-91 209 -91 239 0 20 11 20 830 20 l830 0 -7 -32z"/>
</g>
</svg>
